AdventPro-blk_it.ufo
<glyph name="percent" format="2">
  <advance width="730" height="962"/>
  <unicode hex="0025"/>
  <outline>
    <contour>
      <point x="35" y="0" type="line"/>
      <point x="615" y="700" type="line"/>
      <point x="840" y="700" type="line"/>
      <point x="259" y="0" type="line"/>
    </contour>
    <contour>
      <point x="340" y="715" type="curve" smooth="yes"/>
      <point x="418" y="715"/>
      <point x="471" y="650"/>
      <point x="454" y="570" type="curve" smooth="yes"/>
      <point x="437" y="489"/>
      <point x="356" y="423"/>
      <point x="278" y="423" type="curve" smooth="yes"/>
      <point x="197" y="423"/>
      <point x="145" y="489"/>
      <point x="162" y="570" type="curve" smooth="yes"/>
      <point x="179" y="650"/>
      <point x="259" y="715"/>
    </contour>
    <contour>
      <point x="315.318" y="594.379" type="curve" smooth="yes"/>
      <point x="301.102" y="594.379"/>
      <point x="287.785" y="583.016"/>
      <point x="284.99" y="569.737" type="curve" smooth="yes"/>
      <point x="282.099" y="556.004"/>
      <point x="287.833" y="544.621"/>
      <point x="302.05" y="544.621" type="curve" smooth="yes"/>
      <point x="314.844" y="544.621"/>
      <point x="329.013" y="556.004"/>
      <point x="331.904" y="569.737" type="curve" smooth="yes"/>
      <point x="334.7" y="583.016"/>
      <point x="328.113" y="594.379"/>
    </contour>
    <contour>
      <point x="608" y="278" type="curve" smooth="yes"/>
      <point x="688" y="278"/>
      <point x="739" y="213"/>
      <point x="722" y="132" type="curve" smooth="yes"/>
      <point x="705" y="51"/>
      <point x="626" y="-14"/>
      <point x="546" y="-14" type="curve" smooth="yes"/>
      <point x="465" y="-14"/>
      <point x="413" y="51"/>
      <point x="430" y="132" type="curve" smooth="yes"/>
      <point x="447" y="213"/>
      <point x="527" y="278"/>
    </contour>
    <contour>
      <point x="583.142" y="156.677" type="curve" smooth="yes"/>
      <point x="569.639" y="156.677"/>
      <point x="556.507" y="144.592"/>
      <point x="553.809" y="132" type="curve" smooth="yes"/>
      <point x="550.919" y="118.518"/>
      <point x="556.602" y="107.323"/>
      <point x="570.105" y="107.323" type="curve" smooth="yes"/>
      <point x="582.676" y="107.323"/>
      <point x="596.083" y="118.518"/>
      <point x="598.972" y="132" type="curve" smooth="yes"/>
      <point x="601.671" y="144.592"/>
      <point x="595.713" y="156.677"/>
    </contour>
  </outline>
</glyph>
<glyph name="plus" format="2">
  <advance width="382" height="962"/>
  <unicode hex="002B"/>
  <outline>
    <contour>
      <point x="365" y="531" type="line"/>
      <point x="342" y="429" type="line"/>
      <point x="440" y="429" type="line"/>
      <point x="416" y="306" type="line"/>
      <point x="318" y="306" type="line"/>
      <point x="297" y="211" type="line"/>
      <point x="171" y="211" type="line"/>
      <point x="192" y="306" type="line"/>
      <point x="95" y="306" type="line"/>
      <point x="120" y="429" type="line"/>
      <point x="217" y="429" type="line"/>
      <point x="239" y="531" type="line"/>
    </contour>
  </outline>
</glyph>
<glyph name="I" format="2">
  <advance width="309" height="962"/>
  <unicode hex="0049"/>
  <outline>
    <contour>
      <point x="136" y="552" type="line"/>
      <point x="168" y="700" type="line"/>
      <point x="416" y="700" type="line"/>
      <point x="267" y="0" type="line"/>
      <point x="87" y="0" type="line"/>
      <point x="204" y="550" type="line"/>
    </contour>
  </outline>
</glyph>
<glyph name="bracketleft" format="2">
  <advance width="308" height="962"/>
  <unicode hex="005B"/>
  <outline>
    <contour>
      <point x="366" y="654" type="line"/>
      <point x="241" y="61" type="line"/>
      <point x="290" y="54" type="line"/>
      <point x="255" y="-115" type="line"/>
      <point x="18" y="-115" type="line"/>
      <point x="216" y="819" type="line"/>
      <point x="453" y="819" type="line"/>
      <point x="419" y="660" type="line"/>
    </contour>
  </outline>
</glyph>
<glyph name="bar" format="2">
  <advance width="196" height="962"/>
  <unicode hex="007C"/>
  <outline>
    <contour>
      <point x="92" y="-115" type="line"/>
      <point x="92" y="819" type="line"/>
      <point x="252" y="819" type="line"/>
      <point x="252" y="-115" type="line"/>
    </contour>
  </outline>
</glyph>
<glyph name="cent" format="2">
  <advance width="385" height="962"/>
  <unicode hex="00A2"/>
  <outline>
    <component base="c"/>
    <contour>
      <point x="190" y="-114" type="line"/>
      <point x="294.32" y="249.945" type="line"/>
      <point x="347" y="625" type="line"/>
      <point x="443" y="625" type="line"/>
      <point x="332.488" y="246.031" type="line"/>
      <point x="286" y="-114" type="line"/>
    </contour>
  </outline>
</glyph>
<glyph name="ordfeminine" format="2">
  <advance width="340" height="962"/>
  <unicode hex="00AA"/>
  <outline>
    <contour>
      <point x="389" y="392" type="curve"/>
      <point x="344" y="386"/>
      <point x="290" y="379"/>
      <point x="256" y="379" type="curve" smooth="yes"/>
      <point x="167" y="379"/>
      <point x="111.872" y="407.246"/>
      <point x="137" y="520" type="curve" smooth="yes"/>
      <point x="150.875" y="582.261"/>
      <point x="199" y="633"/>
      <point x="267" y="633" type="curve" smooth="yes"/>
      <point x="291" y="633"/>
      <point x="315" y="625"/>
      <point x="338" y="611" type="curve"/>
      <point x="346" y="644"/>
      <point x="337" y="652"/>
      <point x="301" y="652" type="curve" smooth="yes"/>
      <point x="290" y="652"/>
      <point x="276" y="652"/>
      <point x="258" y="649" type="curve"/>
      <point x="281" y="710" type="line"/>
      <point x="318" y="716"/>
      <point x="379.264" y="715.215"/>
      <point x="408" y="689" type="curve" smooth="yes"/>
      <point x="436.286" y="663.195"/>
      <point x="436.424" y="618.118"/>
      <point x="424" y="556" type="curve" smooth="yes"/>
      <point x="423.562" y="553.807"/>
      <point x="388" y="388"/>
    </contour>
    <contour>
      <point x="322" y="535" type="line"/>
      <point x="308" y="545"/>
      <point x="306" y="547"/>
      <point x="285" y="547" type="curve" smooth="yes"/>
      <point x="259" y="547"/>
      <point x="243.381" y="535.135"/>
      <point x="238" y="509" type="curve" smooth="yes"/>
      <point x="229.378" y="467.123"/>
      <point x="260" y="460"/>
      <point x="290" y="460" type="curve" smooth="yes"/>
      <point x="305" y="460"/>
      <point x="295" y="462"/>
      <point x="306" y="462" type="curve"/>
    </contour>
  </outline>
</glyph>
<glyph name="guillemotleft" format="2">
  <advance width="582"/>
  <unicode hex="00AB"/>
  <outline>
    <contour>
      <point x="480.965" y="258" type="line"/>
      <point x="631.622" y="377" type="line"/>
      <point x="555.926" y="463" type="line"/>
      <point x="319.965" y="268" type="line"/>
      <point x="481.005" y="68" type="line"/>
      <point x="576.671" y="140" type="line"/>
    </contour>
    <contour>
      <point x="252.965" y="261" type="line"/>
      <point x="400.622" y="377" type="line"/>
      <point x="325.926" y="463" type="line"/>
      <point x="88.9652" y="268" type="line"/>
      <point x="254.005" y="67" type="line"/>
      <point x="348.671" y="143" type="line"/>
    </contour>
  </outline>
</glyph>
<glyph name="degree" format="2">
  <advance width="351" height="962"/>
  <unicode hex="00B0"/>
  <outline>
    <contour>
      <point x="441" y="566" type="curve" smooth="yes"/>
      <point x="424" y="486"/>
      <point x="345" y="420"/>
      <point x="264" y="420" type="curve" smooth="yes"/>
      <point x="183" y="420"/>
      <point x="131" y="486"/>
      <point x="148" y="566" type="curve" smooth="yes"/>
      <point x="166" y="648"/>
      <point x="245" y="712"/>
      <point x="326" y="712" type="curve" smooth="yes"/>
      <point x="407" y="712"/>
      <point x="459" y="648"/>
    </contour>
    <contour>
      <point x="301.78" y="594.087" type="curve" smooth="yes"/>
      <point x="286.542" y="594.087"/>
      <point x="271.634" y="582.045"/>
      <point x="268.151" y="566.237" type="curve" smooth="yes"/>
      <point x="264.802" y="551.041"/>
      <point x="274.456" y="538.913"/>
      <point x="289.695" y="538.913" type="curve" smooth="yes"/>
      <point x="303.882" y="538.913"/>
      <point x="319.975" y="551.041"/>
      <point x="323.324" y="566.237" type="curve" smooth="yes"/>
      <point x="326.807" y="582.045"/>
      <point x="315.967" y="594.087"/>
    </contour>
  </outline>
</glyph>
<glyph name="oslash" format="2">
  <advance width="450" height="962"/>
  <unicode hex="00F8"/>
  <outline>
    <component base="o"/>
    <contour>
      <point x="488" y="514" type="line"/>
      <point x="319.11" y="254.841" type="line"/>
      <point x="140" y="-20" type="line"/>
      <point x="54" y="-20" type="line"/>
      <point x="249.923" y="282.378" type="line"/>
      <point x="400" y="514" type="line"/>
    </contour>
  </outline>
</glyph>
<glyph name="Lslash" format="2">
  <advance width="518" height="962"/>
  <unicode hex="0141"/>
  <outline>
    <component base="L" xOffset="88.5"/>
    <contour>
      <point x="127" y="238" type="line"/>
      <point x="98" y="360" type="line"/>
      <point x="472" y="513" type="line"/>
      <point x="503" y="393" type="line"/>
    </contour>
  </outline>
</glyph>
<glyph name="Eng" format="2">
  <advance width="579" height="962"/>
  <unicode hex="014A"/>
  <outline>
    <contour>
      <point x="535" y="-7" type="line" smooth="yes"/>
      <point x="503" y="-156"/>
      <point x="384" y="-214"/>
      <point x="258" y="-214" type="curve"/>
      <point x="252" y="-76" type="line"/>
      <point x="294" y="-78"/>
      <point x="341" y="-55"/>
      <point x="350" y="-14" type="curve" smooth="yes"/>
      <point x="353" y="0" type="line"/>
      <point x="284" y="296" type="line"/>
      <point x="222" y="0" type="line"/>
      <point x="41" y="0" type="line"/>
      <point x="190" y="700" type="line"/>
      <point x="371" y="700" type="line"/>
      <point x="436" y="393" type="line"/>
      <point x="502" y="700" type="line"/>
      <point x="685" y="700" type="line"/>
    </contour>
  </outline>
</glyph>
<glyph name="ogonekcomb" format="2">
  <advance width="267" height="962"/>
  <unicode hex="0328"/>
  <outline>
    <contour>
      <point x="206" y="9" type="line"/>
      <point x="204" y="0" type="line"/>
      <point x="84" y="-115" type="line" smooth="yes"/>
      <point x="74" y="-124"/>
      <point x="79" y="-138"/>
      <point x="94" y="-133" type="curve" smooth="yes"/>
      <point x="111" y="-127"/>
      <point x="212" y="-87"/>
      <point x="212" y="-87" type="curve"/>
      <point x="234" y="-178" type="line"/>
      <point x="207" y="-188"/>
      <point x="132" y="-217"/>
      <point x="107" y="-224" type="curve" smooth="yes"/>
      <point x="-13" y="-257"/>
      <point x="-75" y="-154"/>
      <point x="24" y="-58" type="curve" smooth="yes"/>
      <point x="84" y="1" type="line"/>
      <point x="86" y="9" type="line"/>
    </contour>
  </outline>
</glyph>
<glyph name="theta" format="2">
  <advance width="458" height="962"/>
  <unicode hex="03B8"/>
  <outline>
    <contour>
      <point x="374" y="710" type="curve" smooth="yes"/>
      <point x="506" y="710"/>
      <point x="557" y="633"/>
      <point x="530" y="506" type="curve" smooth="yes"/>
      <point x="462" y="190" type="line" smooth="yes"/>
      <point x="435" y="63"/>
      <point x="357" y="-12"/>
      <point x="226" y="-12" type="curve" smooth="yes"/>
      <point x="97" y="-12"/>
      <point x="48" y="65"/>
      <point x="74" y="190" type="curve" smooth="yes"/>
      <point x="95" y="288" type="line" smooth="yes"/>
      <point x="112" y="366"/>
      <point x="143" y="403"/>
      <point x="171" y="424" type="curve"/>
      <point x="152" y="469"/>
      <point x="152" y="504"/>
      <point x="162" y="550" type="curve" smooth="yes"/>
      <point x="181" y="638"/>
      <point x="269" y="710"/>
    </contour>
    <contour>
      <point x="350" y="510" type="line" smooth="yes"/>
      <point x="354" y="529"/>
      <point x="352" y="539"/>
      <point x="343" y="539" type="curve" smooth="yes"/>
      <point x="334" y="539"/>
      <point x="328" y="531"/>
      <point x="326" y="521" type="curve" smooth="yes"/>
      <point x="324" y="514"/>
      <point x="323" y="502"/>
      <point x="328" y="490" type="curve" smooth="yes"/>
      <point x="330" y="485"/>
      <point x="335" y="476"/>
      <point x="343" y="474" type="curve"/>
    </contour>
    <contour>
      <point x="264" y="169" type="curve" smooth="yes"/>
      <point x="274" y="169"/>
      <point x="281" y="182"/>
      <point x="283" y="194" type="curve" smooth="yes"/>
      <point x="308" y="309" type="line"/>
      <point x="301" y="310"/>
      <point x="290" y="313"/>
      <point x="284" y="320" type="curve"/>
      <point x="281" y="316"/>
      <point x="281" y="313"/>
      <point x="278" y="302" type="curve" smooth="yes"/>
      <point x="255" y="194" type="line" smooth="yes"/>
      <point x="253" y="182"/>
      <point x="254" y="169"/>
    </contour>
  </outline>
  <guideline angle="0" x="0" y="816"/>
</glyph>
<glyph name="nu" format="2">
  <advance width="470" height="962"/>
  <unicode hex="03BD"/>
  <outline>
    <contour>
      <point x="127" y="501" type="line"/>
      <point x="306" y="501" type="line"/>
      <point x="285" y="233" type="line"/>
      <point x="372" y="501" type="line"/>
      <point x="550" y="501" type="line"/>
      <point x="324" y="0" type="line"/>
      <point x="144" y="0" type="line"/>
    </contour>
  </outline>
</glyph>
<glyph name="tau" format="2">
  <advance width="408" height="962"/>
  <unicode hex="03C4"/>
  <outline>
    <contour>
      <point x="340" y="210" type="line" smooth="yes"/>
      <point x="333" y="179"/>
      <point x="342" y="153"/>
      <point x="382" y="153" type="curve"/>
      <point x="292" y="-13" type="line"/>
      <point x="150" y="-12"/>
      <point x="133" y="91"/>
      <point x="150" y="169" type="curve" smooth="yes"/>
      <point x="187" y="343" type="line"/>
      <point x="108" y="343" type="line"/>
      <point x="142" y="501" type="line"/>
      <point x="477" y="501" type="line"/>
      <point x="443" y="343" type="line"/>
      <point x="368" y="343" type="line"/>
    </contour>
  </outline>
</glyph>
<glyph name="uni0404" format="2">
  <advance width="424" height="962"/>
  <unicode hex="0404"/>
  <outline>
    <component base="C"/>
    <contour>
      <point x="174" y="279" type="line"/>
      <point x="208" y="437" type="line"/>
      <point x="413" y="437" type="line"/>
      <point x="343" y="279" type="line"/>
    </contour>
  </outline>
</glyph>
<glyph name="uni0414" format="2">
  <advance width="684" height="962"/>
  <unicode hex="0414"/>
  <outline>
    <contour>
      <point x="644" y="160" type="line"/>
      <point x="706" y="160" type="line"/>
      <point x="649" y="-106" type="line"/>
      <point x="490" y="-106" type="line"/>
      <point x="492" y="-1" type="line"/>
      <point x="192" y="-1" type="line"/>
      <point x="148" y="-106" type="line"/>
      <point x="-10" y="-106" type="line"/>
      <point x="47" y="160" type="line"/>
      <point x="121" y="160" type="line"/>
      <point x="325" y="556" type="line" smooth="yes"/>
      <point x="358" y="620"/>
      <point x="405" y="700"/>
      <point x="525" y="700" type="curve" smooth="yes"/>
      <point x="759" y="700" type="line"/>
    </contour>
    <contour>
      <point x="464" y="160" type="line"/>
      <point x="545" y="540" type="line"/>
      <point x="531" y="540" type="line" smooth="yes"/>
      <point x="499" y="540"/>
      <point x="485" y="510"/>
      <point x="460" y="460" type="curve" smooth="yes"/>
      <point x="307" y="160" type="line"/>
    </contour>
  </outline>
</glyph>
<glyph name="uni0416" format="2">
  <advance width="719" height="962"/>
  <unicode hex="0416"/>
  <outline>
    <contour>
      <point x="519" y="0" type="line"/>
      <point x="514" y="254" type="line"/>
      <point x="502" y="254" type="line"/>
      <point x="448" y="0" type="line"/>
      <point x="269" y="0" type="line"/>
      <point x="323" y="254" type="line"/>
      <point x="311" y="254" type="line"/>
      <point x="198" y="0" type="line"/>
      <point x="18" y="0" type="line"/>
      <point x="175" y="351" type="line"/>
      <point x="178" y="700" type="line"/>
      <point x="355" y="700" type="line"/>
      <point x="350" y="432" type="line"/>
      <point x="361" y="432" type="line"/>
      <point x="418" y="700" type="line"/>
      <point x="597" y="700" type="line"/>
      <point x="540" y="432" type="line"/>
      <point x="551" y="432" type="line"/>
      <point x="660" y="700" type="line"/>
      <point x="841" y="700" type="line"/>
      <point x="692" y="351" type="line"/>
      <point x="702" y="0" type="line"/>
    </contour>
  </outline>
</glyph>
<glyph name="uni0433" format="2">
  <advance width="317" height="962"/>
  <unicode hex="0433"/>
  <outline>
    <contour>
      <point x="139" y="500" type="line"/>
      <point x="414" y="500" type="line"/>
      <point x="380" y="339" type="line"/>
      <point x="285" y="339" type="line"/>
      <point x="213" y="0" type="line"/>
      <point x="33" y="0" type="line"/>
    </contour>
  </outline>
</glyph>
<glyph name="uni0449" format="2">
  <advance width="726" height="962"/>
  <unicode hex="0449"/>
  <outline>
    <component base="uni0448"/>
    <contour>
      <point x="537" y="149" type="line"/>
      <point x="741" y="149" type="line"/>
      <point x="682" y="-125" type="line"/>
      <point x="530" y="-125" type="line"/>
      <point x="536" y="0" type="line"/>
      <point x="505" y="0" type="line"/>
    </contour>
  </outline>
</glyph>
<glyph name="uni046A" format="2">
  <advance width="668" height="962"/>
  <unicode hex="046A"/>
  <outline>
    <contour>
      <point x="577" y="376" type="line" smooth="yes"/>
      <point x="648" y="376"/>
      <point x="694" y="307"/>
      <point x="678" y="231" type="curve" smooth="yes"/>
      <point x="629" y="0" type="line"/>
      <point x="449" y="0" type="line"/>
      <point x="484" y="165" type="line" smooth="yes"/>
      <point x="493" y="205"/>
      <point x="489" y="216"/>
      <point x="473" y="216" type="curve" smooth="yes"/>
      <point x="467" y="216" type="line"/>
      <point x="421" y="0" type="line"/>
      <point x="242" y="0" type="line"/>
      <point x="288" y="216" type="line"/>
      <point x="283" y="216" type="line" smooth="yes"/>
      <point x="266" y="216"/>
      <point x="259" y="205"/>
      <point x="250" y="166" type="curve" smooth="yes"/>
      <point x="215" y="0" type="line"/>
      <point x="36" y="0" type="line"/>
      <point x="86" y="233" type="line" smooth="yes"/>
      <point x="102" y="309"/>
      <point x="175" y="376"/>
      <point x="242" y="376" type="curve" smooth="yes"/>
      <point x="255" y="376" type="line"/>
      <point x="205" y="700" type="line"/>
      <point x="751" y="700" type="line"/>
      <point x="567" y="376" type="line"/>
    </contour>
    <contour>
      <point x="421" y="434" type="line"/>
      <point x="476" y="540" type="line"/>
      <point x="412" y="540" type="line"/>
    </contour>
  </outline>
  <guideline angle="0" x="0" y="748"/>
</glyph>
<glyph name="uni2013" format="2">
  <advance width="500"/>
  <unicode hex="2013"/>
  <outline>
    <contour>
      <point x="114" y="277" type="line"/>
      <point x="143" y="414" type="line"/>
      <point x="543" y="414" type="line"/>
      <point x="514" y="277" type="line"/>
    </contour>
  </outline>
</glyph>
<glyph name="fraction" format="2">
  <advance width="481" height="962"/>
  <unicode hex="2044"/>
  <outline>
    <contour>
      <point x="4" y="-115" type="line"/>
      <point x="440" y="819" type="line"/>
      <point x="629" y="819" type="line"/>
      <point x="193" y="-115" type="line"/>
    </contour>
  </outline>
</glyph>
<glyph name="Y_upper_alt" format="2">
  <advance width="495" height="962"/>
  <unicode hex="9997"/>
  <outline>
    <contour>
      <point x="402" y="316" type="line"/>
      <point x="335" y="0" type="line"/>
      <point x="157" y="0" type="line"/>
      <point x="224" y="316" type="line"/>
      <point x="159" y="700" type="line"/>
      <point x="356" y="700" type="line"/>
      <point x="349" y="484" type="line"/>
      <point x="434" y="700" type="line"/>
      <point x="632" y="700" type="line"/>
    </contour>
  </outline>
</glyph>
<glyph name="fl" format="2">
  <advance width="560" height="962"/>
  <unicode hex="FB02"/>
  <outline>
    <contour>
      <point x="449" y="528" type="line"/>
      <point x="433" y="535"/>
      <point x="400" y="540"/>
      <point x="372" y="540" type="curve" smooth="yes"/>
      <point x="348" y="540"/>
      <point x="332" y="526"/>
      <point x="329" y="512" type="curve" smooth="yes"/>
      <point x="326" y="501" type="line"/>
      <point x="415" y="501" type="line"/>
      <point x="349" y="321" type="line"/>
      <point x="288" y="321" type="line"/>
      <point x="220" y="0" type="line"/>
      <point x="39" y="0" type="line"/>
      <point x="149" y="518" type="line" smooth="yes"/>
      <point x="172" y="627"/>
      <point x="244" y="710"/>
      <point x="409" y="710" type="curve" smooth="yes"/>
      <point x="479" y="710"/>
      <point x="574" y="697"/>
      <point x="658" y="661" type="curve"/>
      <point x="518" y="0" type="line"/>
      <point x="337" y="0" type="line"/>
    </contour>
  </outline>
</glyph>
<glyph name="t_t" format="2">
  <advance width="590" height="962"/>
  <outline>
    <component base="t" xOffset="277"/>
    <contour>
      <point x="265" y="213" type="line" smooth="yes"/>
      <point x="255" y="167"/>
      <point x="276" y="153"/>
      <point x="322" y="153" type="curve"/>
      <point x="222" y="-13" type="line"/>
      <point x="89" y="-11"/>
      <point x="56" y="65"/>
      <point x="76" y="159" type="curve" smooth="yes"/>
      <point x="191" y="700" type="line"/>
      <point x="368" y="700" type="line"/>
      <point x="326" y="500" type="line"/>
      <point x="476" y="500" type="line"/>
      <point x="438" y="321" type="line"/>
      <point x="288" y="321" type="line"/>
    </contour>
  </outline>
</glyph>
